<svg width="24" height="24" viewBox="0 0 24 24" fill="none" xmlns="http://www.w3.org/2000/svg">
<path d="M9.50012 14.5L9.50012 11.5" stroke="#222222" stroke-linecap="round"/>
<path d="M14.5001 14.5L14.5001 11.5" stroke="#222222" stroke-linecap="round"/>
<path d="M3.00012 6.5H21.0001V6.5C19.5957 6.5 18.8934 6.5 18.389 6.83706C18.1706 6.98298 17.9831 7.17048 17.8372 7.38886C17.5001 7.89331 17.5001 8.59554 17.5001 10V15.5C17.5001 17.3856 17.5001 18.3284 16.9143 18.9142C16.3285 19.5 15.3857 19.5 13.5001 19.5H10.5001C8.6145 19.5 7.67169 19.5 7.08591 18.9142C6.50012 18.3284 6.50012 17.3856 6.50012 15.5V10C6.50012 8.59554 6.50012 7.89331 6.16306 7.38886C6.01714 7.17048 5.82964 6.98298 5.61126 6.83706C5.10682 6.5 4.40458 6.5 3.00012 6.5V6.5Z" stroke="#222222" stroke-linecap="round"/>
<path d="M9.50012 3.50024C9.50012 3.50024 10.0001 2.5 12.0001 2.5C14.0001 2.5 14.5001 3.5 14.5001 3.5" stroke="#222222" stroke-linecap="round"/>
</svg>
