<svg width="24" height="24" viewBox="0 0 24 24" fill="none" xmlns="http://www.w3.org/2000/svg">
<path d="M3.50012 11C3.50012 9.10025 3.50118 7.72573 3.64211 6.67754C3.7811 5.64373 4.04785 5.00253 4.52525 4.52513C5.00265 4.04772 5.64385 3.78098 6.67766 3.64199C7.72585 3.50106 9.10037 3.5 11.0001 3.5H13.0001C14.8999 3.5 16.2744 3.50106 17.3226 3.64199C18.3564 3.78098 18.9976 4.04772 19.475 4.52513C19.9524 5.00253 20.2191 5.64373 20.3581 6.67754C20.4991 7.72573 20.5001 9.10025 20.5001 11V13C20.5001 14.8998 20.4991 16.2743 20.3581 17.3225C20.2191 18.3563 19.9524 18.9975 19.475 19.4749C18.9976 19.9523 18.3564 20.219 17.3226 20.358C16.2744 20.4989 14.8999 20.5 13.0001 20.5H11.0001C9.10037 20.5 7.72585 20.4989 6.67766 20.358C5.64385 20.219 5.00265 19.9523 4.52525 19.4749C4.04785 18.9975 3.7811 18.3563 3.64211 17.3225C3.50118 16.2743 3.50012 14.8998 3.50012 13V11Z" stroke="#000100"/>
<path d="M12.0001 8L12.0001 16" stroke="#000100" stroke-linejoin="round"/>
<path d="M16.0001 12L8.00012 12" stroke="#000100" stroke-linejoin="round"/>
</svg>
