<svg width="24" height="24" viewBox="0 0 24 24" fill="none" xmlns="http://www.w3.org/2000/svg">
<path d="M10.1436 6.62756C10.9302 4.66656 11.3235 3.68607 11.9998 3.68607C12.6762 3.68607 13.0695 4.66657 13.8561 6.62757L13.8927 6.71888C14.3371 7.82675 14.5593 8.38068 15.0121 8.71737C15.465 9.05406 16.0595 9.1073 17.2484 9.21377L17.4633 9.23302C19.4091 9.40729 20.382 9.49442 20.5902 10.1134C20.7984 10.7324 20.0759 11.3897 18.6308 12.7044L18.1485 13.1432C17.417 13.8087 17.0513 14.1415 16.8808 14.5776C16.849 14.659 16.8226 14.7423 16.8017 14.8271C16.6896 15.2818 16.7967 15.7645 17.0109 16.73L17.0776 17.0305C17.4713 18.8048 17.6681 19.692 17.3244 20.0747C17.196 20.2177 17.0291 20.3206 16.8437 20.3712C16.3475 20.5066 15.643 19.9326 14.2341 18.7845C13.3089 18.0306 12.8463 17.6536 12.3152 17.5688C12.1063 17.5355 11.8934 17.5355 11.6845 17.5688C11.1534 17.6536 10.6908 18.0306 9.76564 18.7845C8.35669 19.9326 7.65222 20.5066 7.15601 20.3712C6.9706 20.3206 6.80369 20.2177 6.67526 20.0747C6.33158 19.692 6.52842 18.8048 6.92209 17.0305L6.98877 16.73C7.20298 15.7645 7.31008 15.2818 7.19803 14.8271C7.17713 14.7423 7.15069 14.659 7.11889 14.5776C6.94842 14.1415 6.58266 13.8087 5.85116 13.1432L5.36888 12.7044C3.92383 11.3897 3.20131 10.7324 3.40949 10.1134C3.61767 9.49442 4.59057 9.40729 6.53639 9.23302L6.75132 9.21377C7.94024 9.1073 8.5347 9.05406 8.98755 8.71737C9.4404 8.38068 9.6626 7.82675 10.107 6.71888L10.1436 6.62756Z" stroke="#000100"/>
</svg>
