<svg width="99" height="36" viewBox="0 0 99 36" fill="none" xmlns="http://www.w3.org/2000/svg">
<path d="M14.816 18.184C16.3733 18.376 17.5253 18.8773 18.272 19.688C19.04 20.4773 19.424 21.4587 19.424 22.632C19.424 23.8053 18.9867 24.9147 18.112 25.96C17.2587 27.0053 16.16 27.816 14.816 28.392C14.2187 28.6267 13.4293 28.7973 12.448 28.904C11.488 29.0107 10.496 29.064 9.472 29.064C7.76533 29.064 6.016 28.904 4.224 28.584C3.904 28.52 3.56267 28.36 3.2 28.104C2.85867 27.848 2.688 27.4747 2.688 26.984C2.66667 25.0213 2.592 22.2907 2.464 18.792L2.432 17.032C2.34667 14.3013 2.304 12.1573 2.304 10.6C2.304 10.3227 2.464 10.0027 2.784 9.64C3.12533 9.256 3.53067 9.04267 4 9C4.27733 9 4.544 8.98933 4.8 8.968C7.21067 8.73333 8.82133 8.616 9.632 8.616C11.232 8.616 12.64 8.776 13.856 9.096C15.0933 9.39467 16.1173 9.94933 16.928 10.76C17.2267 11.1013 17.472 11.5387 17.664 12.072C17.856 12.584 17.952 13.0853 17.952 13.576C17.9733 14.6213 17.696 15.5813 17.12 16.456C16.5653 17.3307 15.7973 17.9067 14.816 18.184ZM9.824 11.336C9.09867 11.336 8.34133 11.3787 7.552 11.464C6.784 11.5493 6.13333 11.656 5.6 11.784L5.792 17.832L6.944 17.8C8.8 17.608 10.1653 17.448 11.04 17.32C11.5947 17.192 12.1387 16.9467 12.672 16.584C13.2053 16.2 13.6427 15.8053 13.984 15.4C14.3467 14.9733 14.528 14.6533 14.528 14.44C14.528 14.12 14.464 13.8 14.336 13.48C14.208 13.1387 14.0693 12.8933 13.92 12.744C13.344 12.1893 12.7573 11.816 12.16 11.624C11.5627 11.432 10.784 11.336 9.824 11.336ZM5.888 26.248C6.976 26.3973 8.01067 26.472 8.992 26.472C11.1467 26.472 12.8427 26.1947 14.08 25.64C15.3387 25.064 15.968 23.976 15.968 22.376C15.968 21.736 15.488 21.2027 14.528 20.776C13.568 20.3493 12.5333 20.136 11.424 20.136C10.6773 20.136 9.728 20.2213 8.576 20.392C7.65867 20.52 6.76267 20.6053 5.888 20.648C5.93067 21.928 5.952 22.7387 5.952 23.08C5.952 23.7413 5.94133 24.2427 5.92 24.584L5.888 26.248ZM42.243 18.728C42.4137 19.0267 42.5523 19.464 42.659 20.04C42.7657 20.5947 42.819 21.096 42.819 21.544C42.819 22.376 42.6377 23.56 42.275 25.096C40.803 27.784 38.627 29.128 35.747 29.128C34.6803 29.128 33.5923 28.776 32.483 28.072C31.3737 27.368 30.6057 26.5573 30.179 25.64C29.603 23.8053 29.315 22.6427 29.315 22.152C29.315 21.2987 29.4963 20.392 29.859 19.432C30.243 18.472 30.723 17.64 31.299 16.936C31.6617 16.4453 32.3123 16.0293 33.251 15.688C34.1897 15.3253 35.043 15.144 35.811 15.144C37.3043 15.144 38.5737 15.432 39.619 16.008C40.6643 16.5627 41.539 17.4693 42.243 18.728ZM39.459 23.88C39.5657 23.6027 39.619 22.888 39.619 21.736C39.619 21.1173 39.5017 20.5093 39.267 19.912C39.0537 19.3147 38.7337 18.8027 38.307 18.376C38.2643 18.3333 38.147 18.2693 37.955 18.184C37.763 18.0773 37.4963 17.9813 37.155 17.896C36.835 17.7893 36.4617 17.736 36.035 17.736C34.8403 17.736 33.9657 18.216 33.411 19.176C32.8563 20.136 32.579 21.224 32.579 22.44C32.579 22.6533 32.6323 23.0587 32.739 23.656C32.867 24.2533 32.9737 24.6267 33.059 24.776C33.123 24.9253 33.283 25.1387 33.539 25.416C33.8163 25.672 34.147 25.9067 34.531 26.12C34.9363 26.312 35.3523 26.408 35.779 26.408C36.739 26.408 37.507 26.184 38.083 25.736C38.659 25.2667 39.1177 24.648 39.459 23.88ZM58.554 18.728C58.7247 19.0267 58.8633 19.464 58.97 20.04C59.0767 20.5947 59.13 21.096 59.13 21.544C59.13 22.12 59.066 22.76 58.938 23.464C58.81 24.168 58.6927 24.712 58.586 25.096C57.114 27.784 54.938 29.128 52.058 29.128C50.9913 29.128 49.9033 28.776 48.794 28.072C47.6847 27.368 46.9167 26.5573 46.49 25.64C45.914 23.8267 45.626 22.664 45.626 22.152C45.626 21.2987 45.8073 20.392 46.17 19.432C46.554 18.472 47.034 17.64 47.61 16.936C47.994 16.4453 48.6553 16.0293 49.594 15.688C50.5327 15.3253 51.386 15.144 52.154 15.144C53.6473 15.144 54.906 15.432 55.93 16.008C56.9753 16.5627 57.85 17.4693 58.554 18.728ZM55.77 23.88C55.8767 23.6667 55.93 22.952 55.93 21.736C55.93 21.1173 55.8127 20.5093 55.578 19.912C55.3647 19.3147 55.0447 18.8027 54.618 18.376C54.5753 18.3333 54.458 18.2693 54.266 18.184C54.074 18.0773 53.8073 17.9813 53.466 17.896C53.146 17.7893 52.7727 17.736 52.346 17.736C51.1513 17.736 50.2767 18.216 49.722 19.176C49.1673 20.136 48.89 21.224 48.89 22.44C48.89 22.632 48.954 23.0267 49.082 23.624C49.21 24.2213 49.306 24.6053 49.37 24.776C49.5407 25.0747 49.882 25.4267 50.394 25.832C50.9273 26.216 51.5033 26.408 52.122 26.408C53.082 26.408 53.8393 26.184 54.394 25.736C54.97 25.2667 55.4287 24.648 55.77 23.88ZM71.8475 29.128C71.4208 29.128 71.0582 29.0533 70.7595 28.904C70.4608 28.7547 70.2795 28.5947 70.2155 28.424C69.9808 27.5707 69.8635 26.4507 69.8635 25.064C69.8635 22.504 69.9062 20.424 69.9915 18.824C70.0768 16.9253 70.1195 15.1013 70.1195 13.352C70.1195 12.84 70.0555 12.0933 69.9275 11.112C69.9062 10.9413 69.8742 10.632 69.8315 10.184C69.7888 9.736 69.7675 9.32 69.7675 8.936C69.7675 8.46667 69.9275 8.09333 70.2475 7.816C70.5888 7.53867 71.0262 7.4 71.5595 7.4C71.9862 7.4 72.3275 7.53867 72.5835 7.816C72.8608 8.072 72.9995 8.424 72.9995 8.872C72.9995 9.55467 73.0208 10.5147 73.0635 11.752C73.1062 12.904 73.1275 13.768 73.1275 14.344C73.1275 14.984 73.1062 15.8373 73.0635 16.904C73.0208 17.544 72.9995 18.0133 72.9995 18.312C72.9995 19.2507 73.0102 20.0293 73.0315 20.648C73.8208 19.8587 74.8555 18.9307 76.1355 17.864C77.4155 16.7973 78.4075 16.0507 79.1115 15.624C79.8582 15.176 80.3488 14.952 80.5835 14.952C81.0315 14.952 81.4155 15.048 81.7355 15.24C82.0555 15.432 82.2155 15.7093 82.2155 16.072C82.2155 16.4347 82.1622 16.7227 82.0555 16.936C81.9488 17.1493 81.7568 17.3627 81.4795 17.576L77.3515 20.584C77.8208 20.8187 78.2155 21.1173 78.5355 21.48C78.8768 21.8427 79.2182 22.2907 79.5595 22.824C80.2848 24.0187 80.8608 24.8933 81.2875 25.448C81.7355 26.0027 82.1408 26.28 82.5035 26.28L83.3035 26.248C83.4528 26.248 83.5808 26.3333 83.6875 26.504C83.8155 26.6747 83.8795 26.92 83.8795 27.24C83.8795 27.7307 83.6342 28.1253 83.1435 28.424C82.6742 28.7227 82.1408 28.872 81.5435 28.872C80.7115 28.872 79.9755 28.552 79.3355 27.912C78.6955 27.2507 78.0875 26.3653 77.5115 25.256C76.6795 23.6773 75.8582 22.7387 75.0475 22.44L72.9995 24.104L73.1275 27.592C73.1275 28.1467 72.9782 28.5413 72.6795 28.776C72.4022 29.0107 72.1248 29.128 71.8475 29.128ZM94.8748 22.088C95.0454 22.1947 95.3761 22.3973 95.8668 22.696C96.3788 22.9733 96.7201 23.304 96.8908 23.688C97.0614 24.072 97.1468 24.6053 97.1468 25.288C97.1468 26.056 96.9228 26.7387 96.4748 27.336C96.0268 27.912 95.4508 28.36 94.7468 28.68C94.2561 28.8933 93.7228 29.0213 93.1468 29.064C92.5921 29.1067 91.9201 29.128 91.1308 29.128C90.7041 29.128 90.1494 29.064 89.4668 28.936C88.8054 28.808 88.3468 28.6907 88.0908 28.584C87.4081 28.2 86.8321 27.752 86.3628 27.24C85.8934 26.728 85.6588 26.2053 85.6588 25.672C85.6588 25.2453 85.7974 24.904 86.0748 24.648C86.3521 24.392 86.7148 24.264 87.1628 24.264C87.3974 24.264 87.6214 24.328 87.8348 24.456C88.0694 24.5627 88.2294 24.6907 88.3148 24.84C88.5494 25.3947 88.9441 25.8107 89.4988 26.088C90.0534 26.3653 90.6188 26.504 91.1948 26.504C93.2214 26.504 94.2348 26.1413 94.2348 25.416C94.2348 25.224 94.1814 25.0747 94.0748 24.968C93.9894 24.84 93.8614 24.712 93.6908 24.584C93.4134 24.392 93.0188 24.1893 92.5068 23.976C92.0161 23.7627 91.5788 23.6027 91.1948 23.496C90.3201 23.304 89.4668 23.016 88.6348 22.632C87.8668 22.248 87.2374 21.7467 86.7468 21.128C86.2561 20.488 86.0108 19.7093 86.0108 18.792C86.0108 18.2373 86.2134 17.6933 86.6188 17.16C87.0454 16.6053 87.5361 16.1893 88.0908 15.912C88.4748 15.7627 89.1041 15.6027 89.9788 15.432C90.8534 15.2613 91.4508 15.176 91.7708 15.176C92.2614 15.176 92.7948 15.2293 93.3708 15.336C93.9468 15.4213 94.3841 15.5707 94.6828 15.784C95.2588 16.1253 95.7281 16.488 96.0908 16.872C96.4534 17.2347 96.6348 17.6507 96.6348 18.12C96.6348 18.3547 96.5814 18.6107 96.4748 18.888C96.3681 19.144 96.2401 19.304 96.0908 19.368C95.7708 19.5173 95.3974 19.592 94.9708 19.592C94.7788 19.592 94.6188 19.5387 94.4908 19.432C94.3841 19.3253 94.2348 19.1547 94.0428 18.92C93.8081 18.5573 93.5841 18.344 93.3708 18.28C93.1148 18.216 92.7414 18.1413 92.2508 18.056C91.7601 17.9493 91.4294 17.896 91.2588 17.896C90.7254 17.896 90.2134 18.0027 89.7228 18.216C89.2534 18.4293 89.0188 18.7173 89.0188 19.08C89.0188 19.5067 89.3708 19.8693 90.0748 20.168C90.5228 20.3813 91.0134 20.5627 91.5468 20.712C92.1014 20.8613 92.4428 20.9573 92.5708 21C92.8694 21.064 93.2534 21.2133 93.7228 21.448C94.2134 21.6827 94.5974 21.896 94.8748 22.088Z" fill="#000100"/>
<path d="M29.9999 21.3158C25.5999 23.5895 24.8333 25.4211 24.9999 26.0526V27V27.9474" stroke="black" stroke-width="2"/>
<path d="M58 20.8421C62.3819 23.1158 63.1454 24.9474 62.9794 25.5789V26.5263V27.4737" stroke="black" stroke-width="2"/>
</svg>
